<mxfile host="65bd71144e">
    <diagram name="Page-1" id="-3j2pfLDaDNngqbUjOl0">
        <mxGraphModel dx="123" dy="281" grid="1" gridSize="10" guides="1" tooltips="1" connect="1" arrows="1" fold="1" page="1" pageScale="1" pageWidth="1100" pageHeight="850" math="0" shadow="0">
            <root>
                <mxCell id="0"/>
                <mxCell id="1" parent="0"/>
                <mxCell id="SjlOmA4ItColYFF51X_x-3" value="" style="shape=cross;whiteSpace=wrap;html=1;size=0.06666671752929687;container=1;strokeColor=#FFBC26;strokeWidth=1;fillColor=#FFBC26;" parent="1" vertex="1">
                    <mxGeometry x="360" y="160" width="50" height="50" as="geometry"/>
                </mxCell>
            </root>
        </mxGraphModel>
    </diagram>
</mxfile>